<?xml version="1.0" ?><svg data-name="Layer 1" id="Layer_1" viewBox="0 0 128 128" xmlns="http://www.w3.org/2000/svg"><title/><path d="M74.534,53.913A20.424,20.424,0,1,1,94.958,33.489,20.447,20.447,0,0,1,74.534,53.913Z" style="fill:#f15e33"/><ellipse cx="69.293" cy="24.1" rx="5.24" ry="3.562" style="fill:#fff"/><ellipse cx="62.454" cy="31.775" rx="2.731" ry="1.715" style="fill:#fff"/><ellipse cx="73.616" cy="31.485" rx="2.256" ry="1.425" style="fill:#fff"/><path d="M93.958,100.61a20.424,20.424,0,1,1,20.424-20.424A20.447,20.447,0,0,1,93.958,100.61Z" style="fill:#f15e33"/><path d="M97.751,100.254A20.424,20.424,0,1,0,73.889,83.979,20.447,20.447,0,0,0,97.751,100.254ZM94.3,61.814a16.186,16.186,0,1,1-12.9,18.91A16.2,16.2,0,0,1,94.3,61.814Z" style="fill:#fc7e60"/><path d="M96.38,94.567A20.517,20.517,0,0,1,80.727,70.346,2.05,2.05,0,0,0,77,68.824,20.408,20.408,0,0,0,101.986,98.96a2.049,2.049,0,0,0-.928-3.909A20.872,20.872,0,0,1,96.38,94.567Z" style="fill:#d14933"/><path d="M96.061,59.868a20.494,20.494,0,0,0-7.966.751,1.846,1.846,0,0,0,.425,3.606q.951.055,1.918.2A20.426,20.426,0,0,1,106.668,91.2a1.851,1.851,0,0,0,3.153,1.831,20.409,20.409,0,0,0-13.76-33.163Z" style="fill:#fff;opacity:0.25"/><circle cx="102.135" cy="72.314" r="1.77" style="fill:#fff"/><circle cx="101.678" cy="68.457" r="0.885" style="fill:#fff"/><circle cx="99.057" cy="69.342" r="0.714" style="fill:#fff"/><path d="M89.362,87.93a2.825,2.825,0,1,1-2.82-2.82A2.823,2.823,0,0,1,89.362,87.93Z" style="fill:#d14933"/><path d="M88.612,80.33a1.85,1.85,0,1,1-1.85-1.85A1.854,1.854,0,0,1,88.612,80.33Z" style="fill:#d14933"/><path d="M93.012,83.08a1.09,1.09,0,1,1-1.09-1.1A1.086,1.086,0,0,1,93.012,83.08Z" style="fill:#d14933"/><path d="M35.686,48.65A20.424,20.424,0,1,1,56.11,28.226,20.447,20.447,0,0,1,35.686,48.65Z" style="fill:#f15e33"/><path d="M39.48,48.295A20.424,20.424,0,1,0,15.618,32.02,20.447,20.447,0,0,0,39.48,48.295ZM36.03,9.854a16.186,16.186,0,1,1-12.9,18.91A16.2,16.2,0,0,1,36.03,9.854Z" style="fill:#fc7e60"/><path d="M38.109,42.607A20.517,20.517,0,0,1,22.456,18.387a2.05,2.05,0,0,0-3.726-1.522A20.408,20.408,0,0,0,43.714,47a2.049,2.049,0,0,0-.928-3.909A20.872,20.872,0,0,1,38.109,42.607Z" style="fill:#d14933"/><path d="M37.79,7.908a20.494,20.494,0,0,0-7.966.751,1.846,1.846,0,0,0,.425,3.606q.951.055,1.918.2A20.426,20.426,0,0,1,48.4,39.24a1.851,1.851,0,0,0,3.153,1.831A20.409,20.409,0,0,0,37.79,7.908Z" style="fill:#fff;opacity:0.25"/><circle cx="43.863" cy="20.355" r="1.77" style="fill:#fff"/><circle cx="43.407" cy="16.497" r="0.885" style="fill:#fff"/><circle cx="40.786" cy="17.382" r="0.714" style="fill:#fff"/><path d="M31.091,35.971a2.825,2.825,0,1,1-2.82-2.82A2.823,2.823,0,0,1,31.091,35.971Z" style="fill:#d14933"/><path d="M30.341,28.371a1.85,1.85,0,1,1-1.85-1.85A1.854,1.854,0,0,1,30.341,28.371Z" style="fill:#d14933"/><path d="M34.741,31.121a1.09,1.09,0,1,1-1.09-1.1A1.086,1.086,0,0,1,34.741,31.121Z" style="fill:#d14933"/><path d="M74.534,53.913A20.424,20.424,0,1,1,94.958,33.489,20.447,20.447,0,0,1,74.534,53.913Z" style="fill:#f15e33"/><path d="M78.327,53.558A20.424,20.424,0,1,0,54.465,37.283,20.447,20.447,0,0,0,78.327,53.558Zm-3.45-38.44a16.186,16.186,0,1,1-12.9,18.91A16.2,16.2,0,0,1,74.877,15.117Z" style="fill:#fc7e60"/><path d="M76.956,47.871A20.517,20.517,0,0,1,61.3,23.65a2.05,2.05,0,0,0-3.726-1.522A20.408,20.408,0,0,0,82.562,52.264a2.049,2.049,0,0,0-.928-3.909A20.872,20.872,0,0,1,76.956,47.871Z" style="fill:#d14933"/><path d="M76.638,13.172a20.494,20.494,0,0,0-7.966.751,1.846,1.846,0,0,0,.425,3.606q.951.055,1.918.2A20.426,20.426,0,0,1,87.244,44.5,1.851,1.851,0,0,0,90.4,46.334a20.409,20.409,0,0,0-13.76-33.163Z" style="fill:#fff;opacity:0.25"/><circle cx="82.711" cy="25.618" r="1.77" style="fill:#fff"/><circle cx="82.254" cy="21.76" r="0.885" style="fill:#fff"/><circle cx="79.633" cy="22.645" r="0.714" style="fill:#fff"/><path d="M69.938,41.234a2.825,2.825,0,1,1-2.82-2.82A2.823,2.823,0,0,1,69.938,41.234Z" style="fill:#d14933"/><path d="M69.188,33.634a1.85,1.85,0,1,1-1.85-1.85A1.854,1.854,0,0,1,69.188,33.634Z" style="fill:#d14933"/><path d="M73.588,36.384a1.09,1.09,0,1,1-1.09-1.1A1.086,1.086,0,0,1,73.588,36.384Z" style="fill:#d14933"/><path d="M49.869,84.424A20.424,20.424,0,1,1,70.293,64,20.447,20.447,0,0,1,49.869,84.424Z" style="fill:#f15e33"/><path d="M53.663,84.068A20.424,20.424,0,1,0,29.8,67.794,20.447,20.447,0,0,0,53.663,84.068Zm-3.45-38.44a16.186,16.186,0,1,1-12.9,18.91A16.2,16.2,0,0,1,50.213,45.628Z" style="fill:#fc7e60"/><path d="M52.292,78.381A20.517,20.517,0,0,1,36.639,54.161a2.05,2.05,0,0,0-3.726-1.522A20.408,20.408,0,0,0,57.9,82.775a2.049,2.049,0,0,0-.928-3.909A20.872,20.872,0,0,1,52.292,78.381Z" style="fill:#d14933"/><path d="M51.973,43.682a20.494,20.494,0,0,0-7.966.751,1.846,1.846,0,0,0,.425,3.606q.951.055,1.918.2A20.426,20.426,0,0,1,62.579,75.014a1.851,1.851,0,0,0,3.153,1.831,20.409,20.409,0,0,0-13.76-33.163Z" style="fill:#fff;opacity:0.25"/><circle cx="58.046" cy="56.129" r="1.77" style="fill:#fff"/><circle cx="57.59" cy="52.271" r="0.885" style="fill:#fff"/><circle cx="54.969" cy="53.156" r="0.714" style="fill:#fff"/><path d="M45.274,71.744a2.825,2.825,0,1,1-2.82-2.82A2.823,2.823,0,0,1,45.274,71.744Z" style="fill:#d14933"/><path d="M44.524,64.144a1.85,1.85,0,1,1-1.85-1.85A1.854,1.854,0,0,1,44.524,64.144Z" style="fill:#d14933"/><path d="M48.924,66.894a1.09,1.09,0,1,1-1.09-1.1A1.086,1.086,0,0,1,48.924,66.894Z" style="fill:#d14933"/><path d="M29.894,124.867a20.424,20.424,0,1,1,20.424-20.424A20.447,20.447,0,0,1,29.894,124.867Z" style="fill:#f15e33"/><path d="M33.687,124.511A20.424,20.424,0,1,0,9.825,108.236,20.447,20.447,0,0,0,33.687,124.511Zm-3.45-38.44a16.186,16.186,0,1,1-12.9,18.91A16.2,16.2,0,0,1,30.237,86.071Z" style="fill:#fc7e60"/><path d="M32.316,118.824A20.517,20.517,0,0,1,16.663,94.6a2.05,2.05,0,0,0-3.726-1.522,20.408,20.408,0,0,0,24.985,30.136,2.049,2.049,0,0,0-.928-3.909A20.872,20.872,0,0,1,32.316,118.824Z" style="fill:#d14933"/><path d="M32,84.125a20.494,20.494,0,0,0-7.966.751,1.846,1.846,0,0,0,.425,3.606q.951.055,1.918.2A20.426,20.426,0,0,1,42.6,115.457a1.851,1.851,0,0,0,3.153,1.831A20.409,20.409,0,0,0,32,84.125Z" style="fill:#fff;opacity:0.25"/><circle cx="38.071" cy="96.571" r="1.77" style="fill:#fff"/><circle cx="37.614" cy="92.714" r="0.885" style="fill:#fff"/><circle cx="34.993" cy="93.599" r="0.714" style="fill:#fff"/><path d="M25.3,112.187a2.825,2.825,0,1,1-2.82-2.82A2.823,2.823,0,0,1,25.3,112.187Z" style="fill:#d14933"/><path d="M24.548,104.587a1.85,1.85,0,1,1-1.85-1.85A1.854,1.854,0,0,1,24.548,104.587Z" style="fill:#d14933"/><path d="M28.948,107.337a1.09,1.09,0,1,1-1.09-1.1A1.086,1.086,0,0,1,28.948,107.337Z" style="fill:#d14933"/></svg>